<svg xmlns="http://www.w3.org/2000/svg" xmlns:xlink="http://www.w3.org/1999/xlink" width="130" height="130" viewBox="0 0 605 605" version="1.1"><g id="surface1"><path style=" stroke:none;fill-rule:nonzero;fill:rgb(0%,0%,0%);fill-opacity:1;" d="M 0 302.5 L 0 605 L 605 605 L 605 0 L 0 0 Z M 278.300781 123.421875 C 278.300781 124.023438 277.695312 124.628906 276.96875 124.628906 C 276.363281 124.628906 276.121094 124.023438 276.484375 123.421875 C 276.847656 122.695312 277.453125 122.210938 277.816406 122.210938 C 278.058594 122.210938 278.300781 122.695312 278.300781 123.421875 Z M 287.738281 126.6875 C 288.34375 128.742188 284.59375 130.195312 282.898438 128.503906 C 282.171875 127.777344 282.050781 126.6875 282.535156 125.839844 C 283.625 124.144531 287.011719 124.75 287.738281 126.6875 Z M 275.878906 129.46875 C 275.878906 130.074219 275.394531 130.679688 274.671875 130.679688 C 274.066406 130.679688 273.460938 130.074219 273.460938 129.46875 C 273.460938 128.742188 274.066406 128.261719 274.671875 128.261719 C 275.394531 128.261719 275.878906 128.742188 275.878906 129.46875 Z M 364.210938 131.285156 C 366.628906 134.308594 365.179688 137.335938 361.183594 137.335938 C 358.28125 137.335938 357.433594 136.730469 357.191406 134.429688 C 356.464844 129.953125 361.304688 127.777344 364.210938 131.285156 Z M 258.941406 133.101562 C 258.941406 133.703125 258.457031 134.308594 257.730469 134.308594 C 257.125 134.308594 256.519531 133.703125 256.519531 133.101562 C 256.519531 132.375 257.125 131.890625 257.730469 131.890625 C 258.457031 131.890625 258.941406 132.375 258.941406 133.101562 Z M 286.40625 135.640625 C 281.808594 136.125 277.332031 136.851562 276.242188 137.214844 C 275.273438 137.578125 273.824219 137.578125 273.097656 137.09375 C 271.28125 135.882812 279.027344 134.671875 287.980469 134.671875 L 294.636719 134.671875 Z M 335.773438 137.335938 C 343.761719 139.269531 341.339844 139.027344 321.253906 136.003906 L 310.363281 134.429688 L 319.441406 135.035156 C 324.402344 135.398438 331.78125 136.367188 335.773438 137.335938 Z M 268.621094 137.941406 C 270.796875 139.390625 268.863281 139.390625 265.59375 137.941406 C 264.023438 137.214844 263.78125 136.851562 264.988281 136.851562 C 265.957031 136.851562 267.652344 137.335938 268.621094 137.941406 Z M 219.976562 143.628906 C 220.582031 145.683594 216.832031 147.136719 215.136719 145.441406 C 214.410156 144.714844 214.289062 143.628906 214.773438 142.78125 C 215.863281 141.085938 219.253906 141.691406 219.976562 143.628906 Z M 206.789062 147.5 C 208.363281 150.402344 205.820312 154.152344 202.675781 153.550781 C 199.285156 152.824219 197.59375 149.433594 199.527344 147.136719 C 201.707031 144.472656 205.335938 144.714844 206.789062 147.5 Z M 294.996094 146.046875 C 293.183594 146.289062 289.914062 146.289062 287.738281 146.046875 C 285.558594 145.804688 287.011719 145.5625 291.003906 145.5625 C 294.996094 145.5625 296.8125 145.804688 294.996094 146.046875 Z M 327.910156 146.410156 C 340.855469 148.105469 359.613281 152.339844 358.765625 153.550781 C 358.523438 154.03125 363.484375 156.816406 369.898438 159.71875 C 401.839844 174.238281 430.882812 200.859375 447.09375 230.261719 C 449.515625 234.738281 451.210938 238.371094 450.847656 238.371094 C 450.484375 238.371094 448.789062 235.828125 447.214844 232.5625 C 443.464844 225.179688 431.96875 209.210938 424.953125 201.464844 C 396.03125 170.003906 355.980469 150.28125 312.179688 146.046875 C 308.066406 145.5625 308.066406 145.5625 312.785156 145.441406 C 315.445312 145.320312 322.34375 145.804688 327.910156 146.410156 Z M 191.542969 147.136719 C 192.632812 148.347656 191.058594 151.25 189.363281 151.25 C 187.308594 151.25 185.976562 149.191406 186.945312 147.621094 C 187.792969 146.289062 190.332031 146.046875 191.542969 147.136719 Z M 272.613281 148.949219 C 250.589844 153.550781 229.535156 162.019531 211.75 173.636719 C 190.574219 187.308594 169.761719 208.242188 161.414062 224.335938 C 158.871094 229.054688 156.453125 233.167969 155.847656 233.289062 C 155.363281 233.53125 155.242188 234.378906 155.605469 234.980469 C 156.089844 235.707031 155.847656 235.949219 155.242188 235.585938 C 153.550781 234.496094 146.289062 250.589844 142.175781 264.386719 C 140.359375 270.3125 138.785156 275.757812 138.546875 276.484375 C 138.304688 277.089844 138.0625 276.726562 138.0625 275.515625 C 137.820312 271.402344 146.410156 247.324219 151.734375 236.796875 C 157.300781 226.027344 171.214844 204.972656 176.296875 199.890625 C 177.75 198.441406 179.078125 196.867188 179.078125 196.625 C 179.078125 196.261719 179.441406 196.019531 179.804688 196.140625 C 180.167969 196.140625 183.800781 192.996094 187.914062 189.121094 C 197.835938 179.925781 211.75 170.488281 225.785156 163.230469 C 232.078125 160.082031 236.796875 157.300781 236.191406 156.9375 C 235.707031 156.695312 236.070312 156.695312 237.039062 156.9375 C 239.460938 157.542969 243.332031 156.089844 242.605469 154.757812 C 242.242188 154.152344 242.726562 154.03125 243.695312 154.394531 C 244.78125 154.757812 245.628906 154.636719 245.628906 154.03125 C 245.628906 153.066406 253.253906 151.007812 271.644531 147.257812 C 272.976562 146.894531 276.242188 146.652344 278.90625 146.652344 C 282.171875 146.652344 280.234375 147.257812 272.613281 148.949219 Z M 388.894531 158.269531 C 389.257812 158.871094 388.773438 159.355469 387.804688 159.355469 C 386.835938 159.355469 386.351562 158.871094 386.714844 158.269531 C 387.078125 157.785156 387.5625 157.300781 387.804688 157.300781 C 388.046875 157.300781 388.53125 157.785156 388.894531 158.269531 Z M 392.523438 160.6875 C 392.886719 161.292969 392.402344 161.777344 391.433594 161.777344 C 390.46875 161.777344 389.984375 161.292969 390.347656 160.6875 C 390.710938 160.203125 391.191406 159.71875 391.433594 159.71875 C 391.675781 159.71875 392.160156 160.203125 392.523438 160.6875 Z M 359.007812 162.867188 C 359.976562 165.40625 357.433594 167.949219 355.617188 166.132812 C 354.046875 164.558594 355.015625 160.929688 356.949219 160.929688 C 357.675781 160.929688 358.523438 161.777344 359.007812 162.867188 Z M 399.90625 165.648438 C 400.269531 166.253906 400.148438 167.101562 399.542969 167.464844 C 398.9375 167.828125 398.453125 167.34375 398.453125 166.375 C 398.453125 164.316406 398.816406 164.074219 399.90625 165.648438 Z M 366.265625 166.496094 C 365.902344 166.859375 364.816406 166.980469 363.96875 166.617188 C 363 166.253906 363.363281 165.890625 364.695312 165.890625 C 366.023438 165.769531 366.75 166.132812 366.265625 166.496094 Z M 405.953125 170.609375 C 407.164062 171.941406 407.890625 173.03125 407.527344 173.03125 C 407.164062 173.03125 405.953125 171.941406 404.746094 170.609375 C 403.535156 169.277344 402.808594 168.191406 403.171875 168.191406 C 403.535156 168.191406 404.746094 169.277344 405.953125 170.609375 Z M 193.601562 169.761719 C 193.601562 170.003906 192.390625 171.214844 190.9375 172.546875 L 188.15625 174.84375 L 190.453125 172.0625 C 192.632812 169.519531 193.601562 168.796875 193.601562 169.761719 Z M 361.789062 170.609375 C 361.789062 171.214844 361.304688 171.820312 360.578125 171.820312 C 359.976562 171.820312 359.371094 171.214844 359.371094 170.609375 C 359.371094 169.882812 359.976562 169.398438 360.578125 169.398438 C 361.304688 169.398438 361.789062 169.882812 361.789062 170.609375 Z M 200.859375 174.117188 C 200.859375 174.722656 199.40625 176.175781 197.59375 177.265625 L 194.203125 179.441406 L 197.109375 176.175781 C 200.253906 172.789062 200.859375 172.425781 200.859375 174.117188 Z M 411.277344 176.054688 C 412.367188 175.449219 424.710938 188.15625 424.710938 189.96875 C 424.710938 190.574219 426.644531 192.148438 428.945312 193.601562 C 431.242188 195.050781 433.179688 196.867188 433.179688 197.59375 C 433.179688 198.441406 435.480469 202.554688 438.382812 206.910156 C 447.699219 220.824219 455.808594 235.34375 455.203125 237.039062 C 454.839844 238.007812 455.082031 238.371094 455.6875 238.007812 C 456.289062 237.644531 456.773438 238.976562 456.894531 240.789062 C 457.015625 243.089844 454.71875 239.578125 449.878906 229.777344 C 445.523438 220.824219 440.199219 212.234375 435.964844 207.273438 C 432.210938 202.917969 429.914062 199.769531 430.882812 200.253906 C 431.847656 200.859375 431.726562 200.253906 430.398438 198.804688 C 429.308594 197.472656 428.703125 196.140625 429.066406 195.65625 C 429.429688 195.292969 428.582031 194.445312 427.25 193.601562 C 425.800781 192.875 423.015625 189.96875 420.960938 187.1875 C 418.902344 184.402344 416.964844 182.105469 416.480469 182.105469 C 415.394531 181.984375 405.351562 175.328125 405.351562 174.601562 C 405.351562 174.359375 406.4375 174.722656 407.769531 175.449219 C 409.101562 176.175781 410.675781 176.417969 411.277344 176.054688 Z M 185.128906 177.023438 C 185.128906 177.144531 181.5 180.894531 177.023438 185.128906 L 168.796875 192.996094 L 176.660156 184.765625 C 183.921875 177.265625 185.128906 176.054688 185.128906 177.023438 Z M 190.089844 183.558594 C 188.519531 186.460938 181.5 193.117188 181.5 191.785156 C 181.5 191.179688 178.113281 193.84375 173.996094 197.835938 C 166.496094 204.972656 166.496094 204.972656 174.722656 196.382812 C 179.320312 191.542969 183.4375 187.914062 183.921875 188.15625 C 184.402344 188.398438 185.976562 187.066406 187.429688 185.128906 C 190.332031 181.136719 191.90625 180.289062 190.089844 183.558594 Z M 446.128906 191.90625 C 447.09375 194.566406 444.917969 197.835938 442.253906 197.835938 C 441.046875 197.835938 439.59375 196.988281 438.867188 195.898438 C 437.050781 192.996094 438.746094 189.96875 442.253906 189.96875 C 444.070312 189.96875 445.644531 190.816406 446.128906 191.90625 Z M 166.980469 196.503906 C 166.980469 196.746094 166.011719 197.714844 164.921875 198.5625 C 162.988281 200.132812 162.867188 200.011719 164.4375 198.078125 C 166.011719 196.140625 166.980469 195.535156 166.980469 196.503906 Z M 188.519531 202.917969 C 188.277344 204.128906 187.308594 205.09375 186.339844 205.09375 C 185.371094 205.09375 184.402344 204.128906 184.160156 202.917969 C 183.921875 201.464844 184.523438 200.859375 186.339844 200.859375 C 188.15625 200.859375 188.761719 201.464844 188.519531 202.917969 Z M 441.046875 205.699219 C 442.253906 207.03125 442.980469 208.121094 442.617188 208.121094 C 442.253906 208.121094 441.046875 207.03125 439.835938 205.699219 C 438.625 204.367188 437.898438 203.28125 438.261719 203.28125 C 438.625 203.28125 439.835938 204.367188 441.046875 205.699219 Z M 454.71875 206.0625 C 454.960938 207.394531 454.355469 208.121094 452.660156 208.121094 C 449.878906 208.121094 448.425781 206.304688 449.515625 204.367188 C 450.726562 202.554688 454.234375 203.644531 454.71875 206.0625 Z M 256.277344 205.335938 C 254.464844 205.578125 251.558594 207.515625 249.863281 209.449219 C 247.445312 212.476562 246.839844 214.410156 246.960938 219.371094 C 246.960938 222.882812 247.324219 224.9375 247.6875 224.09375 C 247.929688 223.246094 249.382812 222.035156 250.832031 221.308594 C 253.253906 220.21875 253.253906 220.21875 251.4375 221.792969 C 250.226562 222.761719 249.261719 224.09375 249.261719 224.9375 C 249.261719 225.664062 248.777344 226.269531 248.050781 226.269531 C 247.324219 226.269531 246.839844 241.152344 246.839844 268.5 C 246.839844 310.726562 246.839844 310.847656 249.621094 313.996094 C 251.074219 315.808594 254.222656 317.625 256.519531 318.230469 C 259.304688 318.835938 254.464844 319.199219 242 319.199219 C 231.230469 319.199219 224.574219 318.835938 226.390625 318.351562 C 232.199219 316.535156 234.496094 314.601562 235.828125 310.605469 C 236.796875 307.824219 237.160156 291.246094 236.917969 259.183594 C 236.554688 212.71875 236.554688 211.75 234.015625 209.210938 C 232.5625 207.878906 229.535156 206.183594 227.359375 205.699219 C 224.695312 205.09375 229.898438 204.730469 241.394531 204.851562 C 251.4375 204.851562 258.09375 205.09375 256.277344 205.335938 Z M 317.625 205.335938 C 307.703125 206.546875 302.742188 211.386719 265.230469 255.550781 C 263.296875 257.851562 264.988281 259.785156 299.960938 296.691406 L 310.363281 307.703125 L 320.046875 304.195312 C 328.878906 301.046875 331.054688 300.683594 344.851562 300.804688 C 357.796875 300.925781 361.304688 301.410156 369.65625 304.195312 C 385.386719 309.398438 385.144531 309.15625 387.320312 321.859375 C 388.289062 327.910156 388.773438 333.113281 388.289062 333.355469 C 387.925781 333.71875 387.199219 332.386719 386.835938 330.449219 C 385.867188 325.851562 379.09375 317.261719 373.285156 313.148438 C 369.171875 310.484375 355.617188 304.921875 352.957031 304.921875 C 352.472656 304.921875 351.988281 305.886719 351.988281 306.976562 C 351.867188 308.914062 351.746094 308.914062 351.261719 306.855469 C 350.777344 304.800781 349.691406 304.679688 340.253906 305.160156 C 332.023438 305.523438 328.152344 306.371094 322.828125 309.035156 C 318.957031 310.847656 315.808594 312.785156 315.808594 313.269531 C 315.808594 314.964844 329.605469 327.304688 337.226562 332.507812 C 344.125 337.226562 355.257812 342.429688 358.28125 342.429688 C 359.976562 342.429688 358.644531 334.808594 356.222656 330.089844 C 355.257812 328.273438 355.015625 326.578125 355.617188 326.214844 C 356.949219 325.367188 362.152344 340.855469 361.183594 342.429688 C 360.699219 343.15625 361.910156 343.640625 363.847656 343.761719 C 365.660156 343.761719 368.324219 344.246094 369.65625 344.851562 C 371.953125 345.816406 371.953125 345.9375 369.414062 345.9375 C 367.839844 346.058594 366.628906 346.542969 366.628906 347.148438 C 366.628906 347.632812 365.300781 347.875 363.605469 347.511719 C 360.941406 347.027344 360.578125 347.390625 360.339844 351.019531 L 360.21875 355.136719 L 359.734375 351.382812 C 359.25 347.753906 359.007812 347.511719 351.140625 346.300781 C 339.769531 344.367188 325.367188 336.984375 315.324219 327.667969 L 306.976562 320.164062 L 304.316406 323.554688 C 287.253906 344.972656 289.433594 380.304688 308.914062 399.90625 C 325.367188 416.238281 352.957031 419.871094 374.859375 408.375 C 390.710938 400.148438 399.785156 385.507812 402.808594 363.605469 L 404.019531 355.136719 L 403.535156 365.421875 C 402.324219 391.433594 389.621094 409.464844 367.71875 416.480469 C 357.554688 419.628906 337.832031 419.992188 326.820312 417.085938 C 295.117188 408.617188 277.332031 381.753906 281.808594 349.207031 C 282.65625 343.15625 284.109375 337.347656 284.835938 336.378906 C 285.679688 335.410156 287.738281 332.144531 289.433594 329.121094 C 291.125 326.09375 294.636719 321.617188 297.054688 319.078125 L 301.53125 314.480469 L 299.234375 311.816406 C 297.902344 310.363281 286.890625 298.628906 274.910156 285.679688 C 260.875 270.675781 253.253906 261.722656 253.980469 260.875 C 254.464844 260.148438 263.539062 248.777344 273.945312 235.585938 C 284.835938 221.792969 292.820312 210.78125 292.578125 209.570312 C 292.335938 208.484375 290.882812 206.910156 289.191406 206.0625 C 286.648438 204.730469 288.828125 204.609375 303.710938 204.730469 C 313.390625 204.730469 319.683594 205.09375 317.625 205.335938 Z M 192.390625 206.910156 C 192.390625 207.515625 191.90625 208.121094 191.179688 208.121094 C 190.574219 208.121094 189.96875 207.515625 189.96875 206.910156 C 189.96875 206.183594 190.574219 205.699219 191.179688 205.699219 C 191.90625 205.699219 192.390625 206.183594 192.390625 206.910156 Z M 165.769531 207.394531 C 165.769531 207.636719 164.800781 208.605469 163.714844 209.449219 C 161.777344 211.023438 161.65625 210.902344 163.230469 208.96875 C 164.800781 207.03125 165.769531 206.425781 165.769531 207.394531 Z M 186.097656 211.386719 C 185.855469 212.597656 184.886719 213.566406 183.921875 213.566406 C 182.953125 213.566406 181.984375 212.597656 181.742188 211.386719 C 181.5 209.933594 182.105469 209.328125 183.921875 209.328125 C 185.734375 209.328125 186.339844 209.933594 186.097656 211.386719 Z M 446.609375 212.597656 C 448.183594 214.53125 448.0625 214.652344 446.246094 213.082031 C 444.191406 211.507812 443.585938 210.539062 444.554688 210.539062 C 444.796875 210.539062 445.765625 211.507812 446.609375 212.597656 Z M 458.589844 215.378906 C 458.589844 215.984375 458.105469 216.589844 457.378906 216.589844 C 456.773438 216.589844 456.171875 215.984375 456.171875 215.378906 C 456.171875 214.652344 456.773438 214.171875 457.378906 214.171875 C 458.105469 214.171875 458.589844 214.652344 458.589844 215.378906 Z M 304.558594 247.6875 C 304.316406 249.621094 304.074219 248.292969 304.074219 245.023438 C 304.074219 241.636719 304.316406 240.183594 304.558594 241.636719 C 304.800781 243.210938 304.800781 245.871094 304.558594 247.6875 Z M 327.667969 241.03125 C 331.054688 244.421875 327.789062 250.46875 322.34375 250.46875 C 319.683594 250.46875 319.441406 249.984375 319.441406 245.023438 C 319.441406 239.820312 319.5625 239.578125 322.828125 239.578125 C 324.644531 239.578125 326.820312 240.183594 327.667969 241.03125 Z M 350.898438 241.878906 C 352.351562 244.78125 351.382812 247.6875 348.359375 249.261719 C 343.761719 251.800781 342.429688 250.832031 342.429688 245.023438 C 342.429688 239.820312 342.550781 239.578125 346.058594 239.578125 C 348.359375 239.578125 350.054688 240.425781 350.898438 241.878906 Z M 373.890625 241.394531 C 375.703125 243.695312 374.617188 248.777344 371.953125 249.742188 C 366.871094 251.679688 362.878906 246.839844 365.421875 242 C 366.992188 239.097656 371.710938 238.734375 373.890625 241.394531 Z M 454.960938 246.234375 C 454.960938 246.839844 454.355469 246.597656 453.75 245.628906 C 453.144531 244.660156 452.539062 243.210938 452.539062 242.605469 C 452.539062 241.878906 453.144531 242.242188 453.75 243.210938 C 454.355469 244.179688 454.960938 245.507812 454.960938 246.234375 Z M 159.71875 256.640625 C 160.808594 258.457031 160.6875 259.546875 159.597656 260.875 C 156.210938 264.867188 149.917969 261.238281 152.460938 256.640625 C 153.1875 255.1875 154.757812 254.101562 156.089844 254.101562 C 157.421875 254.101562 158.992188 255.1875 159.71875 256.640625 Z M 459.800781 258.335938 C 459.800781 258.941406 459.195312 258.699219 458.589844 257.730469 C 457.984375 256.761719 457.378906 255.308594 457.378906 254.703125 C 457.378906 253.980469 457.984375 254.34375 458.589844 255.308594 C 459.195312 256.277344 459.800781 257.609375 459.800781 258.335938 Z M 453.75 258.941406 C 453.75 260.511719 452.902344 261.359375 451.328125 261.359375 C 449.757812 261.359375 448.910156 260.511719 448.910156 258.941406 C 448.910156 257.367188 449.757812 256.519531 451.328125 256.519531 C 452.902344 256.519531 453.75 257.367188 453.75 258.941406 Z M 461.855469 259.183594 C 461.492188 260.148438 461.132812 259.785156 461.132812 258.457031 C 461.011719 257.125 461.371094 256.398438 461.734375 256.882812 C 462.097656 257.246094 462.21875 258.335938 461.855469 259.183594 Z M 134.308594 266.804688 C 134.308594 267.410156 133.703125 267.167969 133.101562 266.199219 C 132.496094 265.230469 131.890625 263.78125 131.890625 263.175781 C 131.890625 262.449219 132.496094 262.8125 133.101562 263.78125 C 133.703125 264.746094 134.308594 266.078125 134.308594 266.804688 Z M 479.160156 263.78125 C 479.160156 264.386719 478.675781 264.988281 477.949219 264.988281 C 477.34375 264.988281 476.738281 264.386719 476.738281 263.78125 C 476.738281 263.054688 477.34375 262.570312 477.949219 262.570312 C 478.675781 262.570312 479.160156 263.054688 479.160156 263.78125 Z M 327.304688 267.410156 C 328.515625 268.742188 329.242188 269.828125 328.878906 269.828125 C 328.515625 269.828125 327.304688 268.742188 326.09375 267.410156 C 324.886719 266.078125 324.160156 264.988281 324.523438 264.988281 C 324.886719 264.988281 326.09375 266.078125 327.304688 267.410156 Z M 463.429688 270.675781 C 462.097656 272.734375 462.097656 272.734375 462.703125 270.675781 C 463.066406 269.46875 463.429688 267.773438 463.550781 267.046875 C 463.550781 265.957031 463.792969 265.957031 464.15625 267.046875 C 464.519531 267.894531 464.15625 269.46875 463.429688 270.675781 Z M 133.101562 271.644531 C 133.101562 272.25 132.496094 272.007812 131.890625 271.039062 C 131.285156 270.070312 130.679688 268.621094 130.679688 268.015625 C 130.679688 267.289062 131.285156 267.652344 131.890625 268.621094 C 132.496094 269.589844 133.101562 270.917969 133.101562 271.644531 Z M 162.140625 268.621094 C 162.140625 269.226562 161.535156 269.828125 160.808594 269.828125 C 160.203125 269.828125 159.960938 269.226562 160.324219 268.621094 C 160.6875 267.894531 161.292969 267.410156 161.65625 267.410156 C 161.898438 267.410156 162.140625 267.894531 162.140625 268.621094 Z M 457.378906 269.949219 C 457.378906 272.976562 453.386719 272.613281 452.78125 269.46875 C 452.539062 268.015625 453.144531 267.410156 454.839844 267.410156 C 456.652344 267.410156 457.378906 268.136719 457.378906 269.949219 Z M 227.601562 275.757812 C 226.511719 279.148438 225.179688 281.929688 224.695312 281.929688 C 224.09375 281.929688 223.972656 281.203125 224.335938 280.355469 C 224.574219 279.632812 225.542969 276.605469 226.390625 273.824219 C 227.117188 270.917969 228.207031 268.863281 228.691406 269.226562 C 229.175781 269.46875 228.691406 272.492188 227.601562 275.757812 Z M 156.089844 272.25 C 156.089844 274.789062 153.1875 275.636719 151.855469 273.460938 C 150.886719 271.765625 152.21875 269.828125 154.394531 269.828125 C 155.363281 269.828125 156.089844 270.917969 156.089844 272.25 Z M 333.355469 272.128906 C 333.71875 272.734375 333.476562 273.582031 332.871094 273.945312 C 332.265625 274.308594 331.539062 273.824219 331.054688 272.855469 C 330.328125 270.917969 332.144531 270.3125 333.355469 272.128906 Z M 467.421875 295.238281 C 468.027344 307.097656 468.027344 307.339844 467.058594 298.265625 C 466.574219 292.820312 465.488281 285.558594 464.882812 281.929688 C 464.15625 278.421875 464.035156 274.550781 464.398438 273.582031 C 465.488281 270.917969 466.695312 279.632812 467.421875 295.238281 Z M 130.074219 283.746094 C 129.105469 288.707031 128.503906 290.640625 128.382812 288.464844 C 128.140625 282.535156 129.710938 273.21875 130.679688 274.308594 C 131.164062 274.789062 130.921875 279.027344 130.074219 283.746094 Z M 137.578125 282.171875 C 137.214844 283.019531 136.972656 282.414062 136.972656 280.71875 C 136.972656 279.027344 137.214844 278.421875 137.578125 279.148438 C 137.820312 279.992188 137.820312 281.445312 137.578125 282.171875 Z M 124.628906 281.929688 C 124.628906 283.261719 123.902344 284.351562 122.9375 284.351562 C 120.757812 284.351562 119.425781 282.414062 120.394531 280.71875 C 121.726562 278.542969 124.628906 279.390625 124.628906 281.929688 Z M 136.367188 289.433594 C 136.003906 290.277344 135.761719 289.675781 135.761719 287.980469 C 135.761719 286.285156 136.003906 285.679688 136.367188 286.40625 C 136.609375 287.253906 136.609375 288.707031 136.367188 289.433594 Z M 142.417969 289.433594 C 142.054688 290.277344 141.8125 289.675781 141.8125 287.980469 C 141.8125 286.285156 142.054688 285.679688 142.417969 286.40625 C 142.660156 287.253906 142.660156 288.707031 142.417969 289.433594 Z M 220.703125 288.222656 C 220.339844 288.707031 220.460938 289.191406 221.066406 289.191406 C 221.550781 289.191406 223.003906 291.003906 224.214844 293.183594 L 226.511719 297.054688 L 223.246094 294.03125 C 218.890625 290.035156 217.4375 287.132812 219.613281 287.132812 C 220.582031 287.132812 221.066406 287.617188 220.703125 288.222656 Z M 472.746094 289.433594 C 472.382812 290.398438 472.019531 290.035156 472.019531 288.707031 C 471.898438 287.375 472.261719 286.648438 472.625 287.132812 C 472.988281 287.496094 473.109375 288.585938 472.746094 289.433594 Z M 478.796875 289.433594 C 478.433594 290.398438 478.070312 290.035156 478.070312 288.707031 C 477.949219 287.375 478.3125 286.648438 478.675781 287.132812 C 479.039062 287.496094 479.160156 288.585938 478.796875 289.433594 Z M 225.90625 291.851562 C 225.542969 292.699219 225.300781 292.09375 225.300781 290.398438 C 225.300781 288.707031 225.542969 288.101562 225.90625 288.828125 C 226.148438 289.675781 226.148438 291.125 225.90625 291.851562 Z M 127.898438 311.210938 C 127.65625 314.722656 127.535156 311.9375 127.535156 304.921875 C 127.535156 297.902344 127.65625 295.117188 127.898438 298.507812 C 128.140625 302.015625 128.140625 307.824219 127.898438 311.210938 Z M 135.15625 303.347656 C 134.914062 305.28125 134.671875 303.953125 134.671875 300.683594 C 134.671875 297.296875 134.914062 295.84375 135.15625 297.296875 C 135.398438 298.871094 135.398438 301.53125 135.15625 303.347656 Z M 473.957031 303.953125 C 473.714844 305.523438 473.472656 304.558594 473.472656 301.894531 C 473.351562 299.234375 473.59375 298.023438 473.957031 299.113281 C 474.199219 300.320312 474.199219 302.5 473.957031 303.953125 Z M 480.007812 302.136719 C 479.644531 303.347656 479.402344 302.621094 479.402344 300.683594 C 479.402344 298.628906 479.644531 297.78125 480.007812 298.507812 C 480.25 299.355469 480.25 301.046875 480.007812 302.136719 Z M 489.808594 306.976562 C 490.414062 309.035156 486.660156 310.484375 484.96875 308.792969 C 484.242188 308.066406 484.121094 306.976562 484.605469 306.128906 C 485.695312 304.4375 489.082031 305.039062 489.808594 306.976562 Z M 462.21875 309.761719 C 462.21875 310.363281 461.734375 310.96875 461.011719 310.96875 C 460.40625 310.96875 459.800781 310.363281 459.800781 309.761719 C 459.800781 309.035156 460.40625 308.550781 461.011719 308.550781 C 461.734375 308.550781 462.21875 309.035156 462.21875 309.761719 Z M 467.90625 319.683594 C 467.664062 321.859375 467.421875 320.164062 467.421875 315.808594 C 467.421875 311.453125 467.664062 309.761719 467.90625 311.816406 C 468.148438 313.996094 468.148438 317.625 467.90625 319.683594 Z M 135.15625 323.3125 C 134.914062 324.886719 134.671875 323.675781 134.671875 320.648438 C 134.671875 317.625 134.914062 316.414062 135.15625 317.867188 C 135.398438 319.441406 135.398438 321.859375 135.15625 323.3125 Z M 119.789062 318.230469 C 119.789062 318.835938 119.304688 319.441406 118.578125 319.441406 C 117.976562 319.441406 117.371094 318.835938 117.371094 318.230469 C 117.371094 317.503906 117.976562 317.019531 118.578125 317.019531 C 119.304688 317.019531 119.789062 317.503906 119.789062 318.230469 Z M 473.957031 322.707031 C 473.59375 323.917969 473.351562 322.949219 473.351562 320.648438 C 473.351562 318.351562 473.59375 317.382812 473.957031 318.472656 C 474.199219 319.683594 474.199219 321.617188 473.957031 322.707031 Z M 142.417969 320.890625 C 142.054688 321.859375 141.691406 321.496094 141.691406 320.164062 C 141.570312 318.835938 141.933594 318.109375 142.296875 318.59375 C 142.660156 318.957031 142.78125 320.046875 142.417969 320.890625 Z M 151.007812 320.285156 C 150.765625 321.496094 149.796875 322.464844 148.828125 322.464844 C 147.863281 322.464844 146.894531 321.496094 146.652344 320.285156 C 146.410156 318.835938 147.015625 318.230469 148.828125 318.230469 C 150.644531 318.230469 151.25 318.835938 151.007812 320.285156 Z M 492.226562 320.285156 C 492.832031 322.34375 489.082031 323.796875 487.386719 322.101562 C 486.660156 321.375 486.539062 320.285156 487.023438 319.441406 C 488.113281 317.746094 491.503906 318.351562 492.226562 320.285156 Z M 129.105469 328.152344 C 128.863281 329.726562 128.621094 328.757812 128.621094 326.09375 C 128.503906 323.433594 128.742188 322.222656 129.105469 323.3125 C 129.347656 324.523438 129.347656 326.699219 129.105469 328.152344 Z M 480.007812 326.335938 C 479.644531 327.546875 479.402344 326.820312 479.402344 324.886719 C 479.402344 322.828125 479.644531 321.980469 480.007812 322.707031 C 480.25 323.554688 480.25 325.246094 480.007812 326.335938 Z M 465.246094 340.492188 C 455.566406 390.589844 422.894531 433.90625 376.550781 457.742188 C 359.613281 466.453125 332.023438 474.5625 320.164062 474.199219 C 318.109375 474.078125 320.527344 473.351562 325.488281 472.503906 C 352.351562 467.90625 377.519531 457.136719 398.695312 441.285156 C 406.4375 435.480469 426.160156 417.8125 425.679688 417.085938 C 425.558594 416.964844 428.097656 413.457031 431.484375 409.34375 C 439.59375 399.300781 448.0625 384.902344 453.992188 371.347656 C 458.953125 359.855469 465.730469 335.773438 465.972656 328.636719 C 466.09375 326.335938 466.335938 325.730469 466.695312 327.183594 C 467.058594 328.394531 466.335938 334.445312 465.246094 340.492188 Z M 121.847656 328.636719 C 122.9375 331.539062 120.636719 334.566406 117.25 334.566406 C 114.34375 334.566406 112.894531 331.78125 114.222656 328.394531 C 115.070312 326.09375 120.878906 326.214844 121.847656 328.636719 Z M 143.628906 331.78125 C 143.265625 332.75 142.902344 332.386719 142.902344 331.054688 C 142.78125 329.726562 143.144531 329 143.507812 329.484375 C 143.867188 329.847656 143.988281 330.933594 143.628906 331.78125 Z M 485.210938 331.539062 C 485.210938 332.144531 484.726562 332.75 484 332.75 C 483.394531 332.75 482.789062 332.144531 482.789062 331.539062 C 482.789062 330.8125 483.394531 330.328125 484 330.328125 C 484.726562 330.328125 485.210938 330.8125 485.210938 331.539062 Z M 137.214844 359.734375 C 139.511719 366.144531 140.84375 371.710938 140.359375 372.074219 C 138.785156 373.042969 129.46875 340.253906 129.589844 333.960938 C 129.589844 332.265625 130.4375 334.6875 131.40625 339.40625 C 132.375 344.003906 135.035156 353.199219 137.214844 359.734375 Z M 136.367188 335.410156 C 136.003906 336.257812 135.761719 335.652344 135.761719 333.960938 C 135.761719 332.265625 136.003906 331.660156 136.367188 332.386719 C 136.609375 333.234375 136.609375 334.6875 136.367188 335.410156 Z M 472.746094 334.203125 C 472.382812 335.171875 472.019531 334.808594 472.019531 333.476562 C 471.898438 332.144531 472.261719 331.417969 472.625 331.902344 C 472.988281 332.265625 473.109375 333.355469 472.746094 334.203125 Z M 144.835938 339.042969 C 144.472656 340.011719 144.109375 339.648438 144.109375 338.316406 C 143.988281 336.984375 144.351562 336.257812 144.714844 336.742188 C 145.078125 337.105469 145.199219 338.195312 144.835938 339.042969 Z M 210.539062 337.46875 C 210.539062 337.953125 209.210938 338.195312 207.636719 337.953125 C 205.457031 337.46875 204.488281 337.953125 203.886719 340.011719 C 202.917969 343.15625 205.335938 346.421875 208.363281 345.695312 C 209.570312 345.335938 210.296875 345.574219 209.8125 346.179688 C 208.847656 347.753906 205.214844 347.511719 203.523438 345.816406 C 200.011719 342.308594 202.675781 336.378906 207.757812 336.378906 C 209.328125 336.378906 210.539062 336.863281 210.539062 337.46875 Z M 228.085938 341.21875 C 230.140625 341.21875 231.109375 340.371094 231.472656 338.4375 C 231.714844 336.984375 231.957031 338.4375 231.957031 341.824219 C 231.957031 345.09375 231.714844 346.664062 231.472656 345.09375 C 231.109375 343.277344 230.140625 342.429688 228.085938 342.429688 C 226.027344 342.429688 225.058594 343.277344 224.695312 345.09375 C 224.453125 346.664062 224.214844 345.09375 224.214844 341.824219 C 224.214844 338.4375 224.453125 336.984375 224.695312 338.4375 C 225.058594 340.371094 226.027344 341.21875 228.085938 341.21875 Z M 247.6875 344.488281 C 247.445312 346.421875 247.203125 345.09375 247.203125 341.824219 C 247.203125 338.4375 247.445312 336.984375 247.6875 338.4375 C 247.929688 340.011719 247.929688 342.671875 247.6875 344.488281 Z M 270.3125 337.46875 C 270.675781 337.953125 269.710938 338.195312 268.257812 337.953125 C 264.386719 337.226562 261.964844 340.253906 263.78125 343.640625 C 264.867188 345.695312 265.957031 346.058594 268.378906 345.574219 C 271.160156 344.972656 271.28125 344.972656 269.347656 346.179688 C 264.265625 349.328125 258.578125 342.066406 262.8125 337.832031 C 264.507812 336.136719 269.347656 335.894531 270.3125 337.46875 Z M 137.578125 341.460938 C 137.214844 342.429688 136.851562 342.066406 136.851562 340.734375 C 136.730469 339.40625 137.09375 338.679688 137.457031 339.164062 C 137.820312 339.527344 137.941406 340.613281 137.578125 341.460938 Z M 138.785156 347.511719 C 138.425781 348.480469 138.0625 348.117188 138.0625 346.785156 C 137.941406 345.453125 138.304688 344.730469 138.664062 345.214844 C 139.027344 345.574219 139.148438 346.664062 138.785156 347.511719 Z M 364.574219 354.894531 C 361.910156 357.675781 359.371094 360.820312 359.007812 361.789062 C 358.402344 363.363281 358.28125 363.242188 358.28125 361.667969 C 358.160156 360.578125 358.886719 359.007812 359.855469 358.28125 C 360.820312 357.554688 362.152344 355.257812 363 353.320312 C 363.847656 351.382812 364.9375 350.054688 365.421875 350.296875 C 366.023438 350.65625 366.871094 350.296875 367.234375 349.570312 C 367.71875 348.964844 368.445312 348.601562 368.808594 349.085938 C 369.171875 349.449219 367.234375 351.988281 364.574219 354.894531 Z M 141.207031 357.191406 C 140.84375 358.160156 140.480469 357.796875 140.480469 356.464844 C 140.359375 355.136719 140.722656 354.410156 141.085938 354.894531 C 141.449219 355.257812 141.570312 356.34375 141.207031 357.191406 Z M 145.683594 369.050781 C 146.289062 371.105469 146.167969 371.46875 145.441406 370.261719 C 144.835938 369.292969 143.867188 367.113281 143.507812 365.421875 C 142.902344 363.363281 143.023438 363 143.746094 364.210938 C 144.351562 365.179688 145.320312 367.355469 145.683594 369.050781 Z M 357.796875 369.292969 C 357.433594 370.261719 357.070312 369.898438 357.070312 368.566406 C 356.949219 367.234375 357.3125 366.507812 357.675781 366.992188 C 358.039062 367.355469 358.160156 368.445312 357.796875 369.292969 Z M 143.988281 376.550781 C 143.988281 377.15625 143.386719 377.519531 142.660156 377.519531 C 142.054688 377.519531 141.8125 376.914062 142.175781 376.308594 C 142.539062 375.585938 142.296875 375.101562 141.570312 375.101562 C 140.84375 375.101562 140.601562 374.496094 141.085938 373.769531 C 141.8125 372.4375 143.867188 374.496094 143.988281 376.550781 Z M 151.128906 381.753906 C 151.128906 382.359375 150.160156 381.027344 148.828125 378.730469 C 147.5 376.429688 146.53125 373.890625 146.53125 373.285156 C 146.53125 372.558594 147.5 374.011719 148.828125 376.308594 C 150.160156 378.609375 151.128906 381.027344 151.128906 381.753906 Z M 148.226562 384.660156 C 148.589844 385.265625 148.226562 386.230469 147.5 386.714844 C 146.652344 387.199219 146.410156 387.078125 146.894531 386.230469 C 147.257812 385.628906 146.894531 384.660156 146.167969 384.417969 C 145.078125 383.933594 144.957031 383.691406 146.046875 383.691406 C 146.773438 383.570312 147.742188 384.054688 148.226562 384.660156 Z M 155 388.652344 C 163.714844 405.835938 183.558594 428.460938 201.949219 442.253906 C 217.800781 454.234375 249.984375 469.601562 254.945312 467.785156 C 255.914062 467.421875 256.277344 467.664062 255.914062 468.269531 C 255.550781 468.875 256.761719 469.359375 258.578125 469.238281 C 260.390625 469.238281 266.078125 470.085938 271.039062 471.175781 C 276 472.382812 285.074219 473.59375 291.003906 474.078125 C 300.199219 474.683594 301.167969 474.925781 297.054688 475.652344 C 294.394531 476.136719 290.277344 476.859375 287.980469 477.34375 C 284.59375 477.949219 284.109375 477.828125 285.558594 476.738281 C 287.011719 475.652344 286.042969 475.53125 281.324219 476.015625 C 276.847656 476.496094 275.757812 476.378906 277.089844 475.410156 C 278.421875 474.441406 277.816406 474.320312 274.308594 474.804688 C 271.28125 475.167969 270.070312 474.925781 270.554688 474.078125 C 271.160156 473.230469 270.3125 472.988281 268.136719 473.351562 C 266.441406 473.714844 264.988281 473.472656 264.988281 472.867188 C 264.988281 472.261719 264.386719 472.140625 263.78125 472.503906 C 260.390625 474.5625 223.488281 459.921875 207.636719 450.363281 C 202.433594 447.09375 198.320312 444.191406 198.5625 443.828125 C 199.164062 442.738281 193.480469 436.808594 191.90625 436.808594 C 191.179688 436.808594 192.269531 438.140625 194.203125 439.835938 C 196.261719 441.40625 197.351562 442.738281 196.746094 442.859375 C 193.480469 442.980469 163.351562 414.0625 163.109375 410.554688 C 163.109375 410.070312 162.019531 408.859375 160.6875 408.011719 C 159.476562 407.164062 158.753906 405.953125 159.113281 405.351562 C 159.476562 404.867188 158.871094 404.140625 158.027344 403.777344 C 157.058594 403.414062 155.605469 401.960938 154.878906 400.632812 C 153.789062 398.574219 153.910156 398.210938 155.484375 398.816406 C 156.453125 399.179688 157.058594 400.027344 156.695312 400.632812 C 156.332031 401.113281 157.179688 402.203125 158.632812 402.929688 C 159.960938 403.777344 160.808594 404.625 160.445312 404.988281 C 160.082031 405.351562 161.050781 406.679688 162.503906 407.890625 C 163.953125 409.101562 164.800781 410.070312 164.316406 410.191406 C 163.109375 410.191406 182.589844 430.398438 187.308594 433.90625 C 190.089844 435.964844 188.277344 433.542969 182.589844 427.613281 C 170.003906 414.546875 155.363281 394.460938 152.097656 385.628906 C 150.644531 381.753906 152.460938 383.570312 155 388.652344 Z M 439.230469 387.925781 C 439.230469 388.894531 438.261719 389.621094 437.050781 389.621094 C 434.027344 389.621094 432.9375 388.289062 434.511719 386.472656 C 436.085938 384.660156 439.230469 385.628906 439.230469 387.925781 Z M 149.433594 388.410156 C 149.070312 389.015625 149.3125 389.621094 150.039062 389.621094 C 150.765625 389.621094 151.128906 390.105469 150.765625 390.710938 C 150.402344 391.3125 150.886719 392.160156 151.976562 392.523438 C 152.945312 392.886719 153.550781 393.734375 153.1875 394.339844 C 152.703125 394.945312 153.066406 395.789062 153.671875 396.03125 C 154.515625 396.515625 154.394531 396.636719 153.671875 396.394531 C 152.824219 396.273438 152.339844 395.789062 152.339844 395.308594 C 152.460938 394.824219 151.371094 393.371094 150.039062 392.039062 C 147.863281 389.863281 147.621094 387.199219 149.554688 387.199219 C 149.917969 387.199219 149.796875 387.683594 149.433594 388.410156 Z M 176.417969 394.824219 C 176.660156 396.152344 176.054688 396.878906 174.480469 396.878906 C 171.578125 396.878906 170.609375 395.910156 171.457031 393.734375 C 172.304688 391.3125 175.933594 392.160156 176.417969 394.824219 Z M 430.761719 395.789062 C 431.847656 397.605469 431.726562 398.695312 430.640625 400.027344 C 427.25 404.019531 420.960938 400.390625 423.5 395.789062 C 424.226562 394.339844 425.800781 393.25 427.128906 393.25 C 428.460938 393.25 430.035156 394.339844 430.761719 395.789062 Z M 183.679688 403.777344 C 183.074219 406.921875 179.078125 407.285156 179.078125 404.261719 C 179.078125 402.445312 179.804688 401.71875 181.621094 401.71875 C 183.316406 401.71875 183.921875 402.324219 183.679688 403.777344 Z M 151.855469 405.351562 C 152.21875 405.953125 151.976562 406.558594 151.371094 406.558594 C 150.644531 406.558594 150.039062 405.953125 150.039062 405.351562 C 150.039062 404.625 150.28125 404.140625 150.523438 404.140625 C 150.886719 404.140625 151.492188 404.625 151.855469 405.351562 Z M 445.28125 404.625 C 445.28125 404.867188 444.3125 405.835938 443.222656 406.679688 C 441.285156 408.253906 441.164062 408.132812 442.738281 406.195312 C 444.3125 404.261719 445.28125 403.65625 445.28125 404.625 Z M 423.5 407.769531 C 423.5 408.375 423.015625 408.980469 422.289062 408.980469 C 421.683594 408.980469 421.078125 408.375 421.078125 407.769531 C 421.078125 407.042969 421.683594 406.558594 422.289062 406.558594 C 423.015625 406.558594 423.5 407.042969 423.5 407.769531 Z M 441.648438 409.464844 C 441.648438 409.707031 440.683594 410.675781 439.59375 411.519531 C 437.65625 413.09375 437.535156 412.972656 439.109375 411.035156 C 440.683594 409.101562 441.648438 408.496094 441.648438 409.464844 Z M 446.488281 411.882812 C 446.488281 412.125 445.523438 413.09375 444.433594 413.941406 C 442.496094 415.515625 442.375 415.394531 443.949219 413.457031 C 445.523438 411.519531 446.488281 410.914062 446.488281 411.882812 Z M 155.96875 414.183594 C 157.542969 416.117188 156.574219 417.449219 153.429688 417.449219 C 151.25 417.449219 150.402344 415.03125 152.097656 413.457031 C 153.308594 412.246094 154.394531 412.488281 155.96875 414.183594 Z M 180.410156 414.667969 C 181.984375 416.601562 181.863281 416.722656 180.046875 415.152344 C 178.839844 414.304688 177.871094 413.335938 177.871094 413.09375 C 177.871094 412.125 178.839844 412.730469 180.410156 414.667969 Z M 436.808594 415.394531 C 436.808594 415.636719 435.601562 416.84375 434.148438 418.175781 L 431.363281 420.476562 L 433.664062 417.691406 C 435.84375 415.152344 436.808594 414.425781 436.808594 415.394531 Z M 453.507812 419.507812 C 454.113281 421.5625 450.363281 423.015625 448.667969 421.320312 C 447.941406 420.597656 447.820312 419.507812 448.304688 418.660156 C 449.394531 416.964844 452.78125 417.570312 453.507812 419.507812 Z M 191.785156 427.128906 C 196.382812 431.726562 199.890625 435.601562 199.527344 435.601562 C 199.285156 435.601562 195.171875 431.726562 190.574219 427.128906 C 185.976562 422.410156 182.46875 418.660156 182.832031 418.660156 C 183.074219 418.660156 187.1875 422.410156 191.785156 427.128906 Z M 431.96875 427.734375 C 427.007812 432.695312 422.652344 436.808594 422.410156 436.808594 C 422.046875 436.808594 425.800781 432.695312 430.761719 427.734375 C 435.722656 422.773438 440.078125 418.660156 440.320312 418.660156 C 440.683594 418.660156 436.929688 422.773438 431.96875 427.734375 Z M 160.929688 424.710938 C 160.929688 425.316406 160.445312 425.921875 159.71875 425.921875 C 159.113281 425.921875 158.511719 425.316406 158.511719 424.710938 C 158.511719 423.984375 159.113281 423.5 159.71875 423.5 C 160.445312 423.5 160.929688 423.984375 160.929688 424.710938 Z M 446.488281 428.460938 C 446.488281 430.398438 442.738281 431.121094 441.285156 429.671875 C 440.199219 428.582031 440.199219 427.976562 441.527344 427.25 C 443.464844 426.039062 446.488281 426.765625 446.488281 428.460938 Z M 421.078125 431.121094 C 421.078125 431.363281 419.628906 432.816406 417.8125 434.511719 L 414.425781 437.414062 L 417.328125 434.027344 C 420.113281 431.003906 421.078125 430.15625 421.078125 431.121094 Z M 437.777344 437.171875 C 438.019531 438.625 437.414062 439.230469 435.722656 439.230469 C 434.269531 439.230469 433.179688 438.503906 433.179688 437.65625 C 433.179688 433.90625 437.050781 433.542969 437.777344 437.171875 Z M 447.457031 438.382812 C 447.699219 439.835938 447.09375 440.441406 445.402344 440.441406 C 443.949219 440.441406 442.859375 439.714844 442.859375 438.867188 C 442.859375 435.117188 446.730469 434.753906 447.457031 438.382812 Z M 205.820312 440.078125 C 207.394531 442.011719 207.273438 442.132812 205.457031 440.5625 C 204.246094 439.714844 203.28125 438.746094 203.28125 438.503906 C 203.28125 437.535156 204.246094 438.140625 205.820312 440.078125 Z M 419.871094 438.503906 C 419.871094 438.746094 418.902344 439.714844 417.8125 440.5625 C 415.878906 442.132812 415.757812 442.011719 417.328125 440.078125 C 418.902344 438.140625 419.871094 437.535156 419.871094 438.503906 Z M 411.398438 439.714844 C 411.398438 439.957031 410.433594 440.925781 409.34375 441.769531 C 407.40625 443.34375 407.285156 443.222656 408.859375 441.285156 C 410.433594 439.351562 411.398438 438.746094 411.398438 439.714844 Z M 430.761719 440.441406 C 430.761719 441.046875 430.277344 441.648438 429.550781 441.648438 C 428.945312 441.648438 428.339844 441.046875 428.339844 440.441406 C 428.339844 439.714844 428.945312 439.230469 429.550781 439.230469 C 430.277344 439.230469 430.761719 439.714844 430.761719 440.441406 Z M 258.335938 455.566406 C 258.335938 458.832031 257.972656 459.195312 254.703125 459.195312 C 252.164062 459.195312 250.953125 458.589844 250.710938 457.015625 C 250.105469 453.992188 252.769531 451.089844 255.792969 451.570312 C 257.730469 451.8125 258.335938 452.78125 258.335938 455.566406 Z M 269.589844 461.855469 C 270.191406 463.914062 266.441406 465.367188 264.746094 463.671875 C 264.023438 462.945312 263.902344 461.855469 264.386719 461.011719 C 265.472656 459.316406 268.863281 459.921875 269.589844 461.855469 Z M 400.511719 461.011719 C 400.511719 461.613281 400.027344 462.21875 399.300781 462.21875 C 398.695312 462.21875 398.089844 461.613281 398.089844 461.011719 C 398.089844 460.285156 398.695312 459.800781 399.300781 459.800781 C 400.027344 459.800781 400.511719 460.285156 400.511719 461.011719 Z M 395.066406 468.269531 C 395.066406 469.238281 394.097656 470.207031 393.007812 470.449219 C 391.433594 470.691406 390.828125 470.085938 390.828125 468.269531 C 390.828125 466.453125 391.433594 465.851562 393.007812 466.09375 C 394.097656 466.335938 395.066406 467.300781 395.066406 468.269531 Z M 385.746094 471.535156 C 386.351562 473.59375 382.601562 475.046875 380.90625 473.351562 C 380.183594 472.625 380.0625 471.535156 380.546875 470.691406 C 381.632812 468.996094 385.023438 469.601562 385.746094 471.535156 Z M 338.4375 473.835938 C 338.074219 474.199219 336.984375 474.320312 336.136719 473.957031 C 335.171875 473.59375 335.53125 473.230469 336.863281 473.230469 C 338.195312 473.109375 338.921875 473.472656 338.4375 473.835938 Z M 312.542969 475.167969 C 311.695312 475.410156 310.242188 475.410156 309.519531 475.167969 C 308.671875 474.804688 309.277344 474.5625 310.96875 474.5625 C 312.664062 474.5625 313.269531 474.804688 312.542969 475.167969 Z M 322.222656 476.378906 C 321.375 476.617188 319.925781 476.617188 319.199219 476.378906 C 318.351562 476.015625 318.957031 475.773438 320.648438 475.773438 C 322.34375 475.773438 322.949219 476.015625 322.222656 476.378906 Z M 255.066406 479.523438 C 255.308594 480.976562 254.703125 481.578125 253.011719 481.578125 C 251.558594 481.578125 250.46875 480.855469 250.46875 480.007812 C 250.46875 476.257812 254.34375 475.894531 255.066406 479.523438 Z M 329.96875 477.464844 C 329.605469 477.828125 328.515625 477.949219 327.667969 477.585938 C 326.699219 477.222656 327.0625 476.859375 328.394531 476.859375 C 329.726562 476.738281 330.449219 477.101562 329.96875 477.464844 Z M 305.886719 478.796875 C 304.679688 479.039062 302.5 479.039062 301.046875 478.796875 C 299.476562 478.554688 300.441406 478.3125 303.105469 478.3125 C 305.765625 478.191406 306.976562 478.433594 305.886719 478.796875 Z M 317.382812 478.796875 C 315.808594 479.039062 313.148438 479.039062 311.332031 478.796875 C 309.398438 478.554688 310.726562 478.3125 313.996094 478.3125 C 317.382812 478.3125 318.835938 478.554688 317.382812 478.796875 Z M 317.382812 478.796875 " /><path style=" stroke:none;fill-rule:nonzero;fill:rgb(0%,0%,0%);fill-opacity:1;" d="M 413.214844 179.078125 C 414.425781 180.410156 415.636719 181.5 415.996094 181.5 C 416.359375 181.5 415.636719 180.410156 414.425781 179.078125 C 413.214844 177.75 412.003906 176.660156 411.640625 176.660156 C 411.277344 176.660156 412.003906 177.75 413.214844 179.078125 Z M 413.214844 179.078125 " /><path style=" stroke:none;fill-rule:nonzero;fill:rgb(0%,0%,0%);fill-opacity:1;" d="M 320.648438 245.023438 C 320.648438 247.929688 321.253906 249.261719 322.34375 249.261719 C 324.160156 249.261719 327.910156 246.113281 327.910156 244.539062 C 327.910156 242.96875 325.007812 240.789062 322.828125 240.789062 C 321.132812 240.789062 320.648438 241.757812 320.648438 245.023438 Z M 320.648438 245.023438 " /><path style=" stroke:none;fill-rule:nonzero;fill:rgb(0%,0%,0%);fill-opacity:1;" d="M 343.640625 244.902344 C 343.640625 247.566406 344.246094 249.261719 345.214844 249.261719 C 350.296875 249.140625 351.382812 241.757812 346.421875 241.03125 C 344.003906 240.667969 343.640625 241.152344 343.640625 244.902344 Z M 343.640625 244.902344 " /><path style=" stroke:none;fill-rule:nonzero;fill:rgb(0%,0%,0%);fill-opacity:1;" d="M 367.476562 241.636719 C 365.902344 243.089844 366.628906 248.171875 368.566406 248.898438 C 371.347656 249.863281 374.253906 246.476562 373.285156 243.332031 C 372.558594 240.910156 369.171875 239.941406 367.476562 241.636719 Z M 367.476562 241.636719 " /></g></svg>